# xmcd
#
# Track frame offsets: 
#        150
#        22994
#        37941
#        56606
#        90208
#        104550
#        122184
#        139779
#        154001
#        191310
#        212015
#        231299
#        248869
#
# Disc length: 3428 seconds
#
# Revision: 0
# Processed by: cddbd v1.5.1PL0 Copyright (c) Steve Scherf et al.
# Submitted via: ExactAudioCopy v0.95b2
#
DISCID=a40d620d
DTITLE=Sky High - Safe Sex - Live
DYEAR=1900
DGENRE=Blues
TTITLE0=Don't Move
TTITLE1=Boogie For Peace
TTITLE2=Stone Free
TTITLE3=Red House
TTITLE4=Come On
TTITLE5=Dont Turn
TTITLE6=Hey Joe
TTITLE7=Fire
TTITLE8=Voodo Chile
TTITLE9=Hard Working Man
TTITLE10=Ramblin' On My Mind
TTITLE11=Manic Depression
TTITLE12=I Ain't Beggin'
EXTD=
EXTT0=
EXTT1=
EXTT2=
EXTT3=
EXTT4=
EXTT5=
EXTT6=
EXTT7=
EXTT8=
EXTT9=
EXTT10=
EXTT11=
EXTT12=
PLAYORDER=
